<svg xmlns="http://www.w3.org/2000/svg" width="1500" height="1000" viewBox="0 0 1500 1000" font-family="Segoe UI, Helvetica, Arial, sans-serif">
<defs>
<linearGradient id="blue" x1="0" y1="0" x2="0" y2="1"><stop offset="0" stop-color="#dcebff"/><stop offset="1" stop-color="#8fb4ec"/></linearGradient>
<linearGradient id="amber" x1="0" y1="0" x2="0" y2="1"><stop offset="0" stop-color="#ffe9c2"/><stop offset="1" stop-color="#eca844"/></linearGradient>
<linearGradient id="red" x1="0" y1="0" x2="0" y2="1"><stop offset="0" stop-color="#ffd6d1"/><stop offset="1" stop-color="#ef8478"/></linearGradient>
<linearGradient id="green" x1="0" y1="0" x2="0" y2="1"><stop offset="0" stop-color="#d6f0d6"/><stop offset="1" stop-color="#7cc47c"/></linearGradient>
<marker id="arrow" markerWidth="12" markerHeight="12" refX="9" refY="5" orient="auto"><path d="M1,1 L9,5 L1,9" fill="none" stroke="#444" stroke-width="1.4"/></marker>
</defs>
<rect x="0" y="0" width="1500" height="1000" fill="#ffffff"/>
<rect x="40" y="60" width="1420" height="900" fill="none" stroke="#333" stroke-width="1.5"/>
<path d="M40,60 L360,60 L390,90 L390,110 L40,110 Z" fill="#eef2f7" stroke="#333" stroke-width="1.5"/>
<text x="58" y="90" font-size="17" font-weight="bold">uc</text><text x="82" y="90" font-size="16">[use case diagram] Communication Failure &amp; Fallback</text>
<rect x="300" y="150" width="1040" height="760" fill="#fbfcfe" stroke="#5a6b85" stroke-width="1.6"/>
<text x="820.0" y="178" font-size="16" font-weight="bold" text-anchor="middle">Truck Platooning System</text>
<line x1="150" y1="340" x2="398" y2="290" stroke="#6b7a92" stroke-width="1.5"/>
<line x1="150" y1="580" x2="738" y2="297" stroke="#6b7a92" stroke-width="1.5"/>
<line x1="150" y1="580" x2="719" y2="461" stroke="#6b7a92" stroke-width="1.5"/>
<line x1="150" y1="580" x2="593" y2="612" stroke="#6b7a92" stroke-width="1.5"/>
<line x1="150" y1="820" x2="385" y2="666" stroke="#6b7a92" stroke-width="1.5"/>
<line x1="1385" y1="560" x2="1182" y2="491" stroke="#6b7a92" stroke-width="1.5"/>
<line x1="1385" y1="560" x2="1180" y2="637" stroke="#6b7a92" stroke-width="1.5"/>
<line x1="820" y1="380" x2="820" y2="318" stroke="#444" stroke-width="1.4" stroke-dasharray="7,5" marker-end="url(#arrow)"/>
<rect x="774.0" y="325.0" width="92" height="17" fill="#ffffff" opacity="0.9"/>
<text x="820.0" y="338.0" font-size="12.5" text-anchor="middle" font-style="italic">&lt;&lt;include&gt;&gt;</text>
<line x1="782" y1="496" x2="738" y2="564" stroke="#444" stroke-width="1.4" stroke-dasharray="7,5" marker-end="url(#arrow)"/>
<rect x="714.0" y="506.0" width="92" height="17" fill="#ffffff" opacity="0.9"/>
<text x="760.0" y="519.0" font-size="12.5" text-anchor="middle" font-style="italic">&lt;&lt;include&gt;&gt;</text>
<line x1="592" y1="620" x2="563" y2="620" stroke="#444" stroke-width="1.4" stroke-dasharray="7,5" marker-end="url(#arrow)"/>
<rect x="531.5" y="596.0" width="92" height="17" fill="#ffffff" opacity="0.9"/>
<text x="577.5" y="609.0" font-size="12.5" text-anchor="middle" font-style="italic">&lt;&lt;include&gt;&gt;</text>
<line x1="787" y1="584" x2="1003" y2="496" stroke="#444" stroke-width="1.4" stroke-dasharray="7,5" marker-end="url(#arrow)"/>
<rect x="849.0" y="516.0" width="92" height="17" fill="#ffffff" opacity="0.9"/>
<text x="895.0" y="529.0" font-size="12.5" text-anchor="middle" font-style="italic">&lt;&lt;include&gt;&gt;</text>
<line x1="985" y1="657" x2="805" y2="633" stroke="#444" stroke-width="1.4" stroke-dasharray="7,5" marker-end="url(#arrow)"/>
<rect x="849.0" y="621.0" width="92" height="17" fill="#ffffff" opacity="0.9"/>
<text x="895.0" y="634.0" font-size="12.5" text-anchor="middle" font-style="italic">&lt;&lt;extend&gt;&gt;</text>
<text x="895.0" y="661.0" font-size="11.5" text-anchor="middle" fill="#8a4b12">[gap &lt; D_MIN]</text>
<line x1="700" y1="750" x2="700" y2="680" stroke="#444" stroke-width="1.4" stroke-dasharray="7,5" marker-end="url(#arrow)"/>
<rect x="654.0" y="691.0" width="92" height="17" fill="#ffffff" opacity="0.9"/>
<text x="700.0" y="704.0" font-size="12.5" text-anchor="middle" font-style="italic">&lt;&lt;extend&gt;&gt;</text>
<text x="700.0" y="731.0" font-size="11.5" text-anchor="middle" fill="#8a4b12">[heartbeat restored]</text>
<ellipse cx="500" cy="270" rx="108" ry="60" fill="url(#blue)" stroke="#33465f" stroke-width="1.8"/>
<text x="500" y="275" font-size="14.5" text-anchor="middle" font-weight="600">Emit Heartbeat</text>
<ellipse cx="820" cy="258" rx="108" ry="60" fill="url(#blue)" stroke="#33465f" stroke-width="1.8"/>
<text x="820" y="253" font-size="14.5" text-anchor="middle" font-weight="600">Monitor</text>
<text x="820" y="273" font-size="14.5" text-anchor="middle" font-weight="600">Communication</text>
<ellipse cx="820" cy="440" rx="108" ry="60" fill="url(#blue)" stroke="#33465f" stroke-width="1.8"/>
<text x="820" y="445" font-size="14.5" text-anchor="middle" font-weight="600">Detect Link Loss</text>
<ellipse cx="700" cy="620" rx="108" ry="60" fill="url(#amber)" stroke="#33465f" stroke-width="1.8"/>
<text x="700" y="615" font-size="14.5" text-anchor="middle" font-weight="600">Activate Safe</text>
<text x="700" y="635" font-size="14.5" text-anchor="middle" font-weight="600">Fallback</text>
<ellipse cx="455" cy="620" rx="108" ry="60" fill="url(#amber)" stroke="#33465f" stroke-width="1.8"/>
<text x="455" y="615" font-size="14.5" text-anchor="middle" font-weight="600">Switch to</text>
<text x="455" y="635" font-size="14.5" text-anchor="middle" font-weight="600">Independent Driving</text>
<ellipse cx="1090" cy="460" rx="108" ry="60" fill="url(#red)" stroke="#33465f" stroke-width="1.8"/>
<text x="1090" y="455" font-size="14.5" text-anchor="middle" font-weight="600">Maintain Safe</text>
<text x="1090" y="475" font-size="14.5" text-anchor="middle" font-weight="600">Distance</text>
<ellipse cx="1090" cy="670" rx="108" ry="60" fill="url(#red)" stroke="#33465f" stroke-width="1.8"/>
<text x="1090" y="675" font-size="14.5" text-anchor="middle" font-weight="600">Emergency Braking</text>
<ellipse cx="700" cy="810" rx="108" ry="60" fill="url(#green)" stroke="#33465f" stroke-width="1.8"/>
<text x="700" y="815" font-size="14.5" text-anchor="middle" font-weight="600">Resume Platooning</text>
<circle cx="150" cy="300" r="13" fill="#fff" stroke="#31507d" stroke-width="2"/><line x1="150" y1="313" x2="150" y2="350" stroke="#31507d" stroke-width="2"/><line x1="128" y1="326" x2="172" y2="326" stroke="#31507d" stroke-width="2"/><line x1="150" y1="350" x2="132" y2="378" stroke="#31507d" stroke-width="2"/><line x1="150" y1="350" x2="168" y2="378" stroke="#31507d" stroke-width="2"/><text x="150" y="398" font-size="13.5" text-anchor="middle" font-weight="600">Lead Truck</text><text x="150" y="415" font-size="13.5" text-anchor="middle" font-weight="600">Controller</text>
<circle cx="150" cy="540" r="13" fill="#fff" stroke="#31507d" stroke-width="2"/><line x1="150" y1="553" x2="150" y2="590" stroke="#31507d" stroke-width="2"/><line x1="128" y1="566" x2="172" y2="566" stroke="#31507d" stroke-width="2"/><line x1="150" y1="590" x2="132" y2="618" stroke="#31507d" stroke-width="2"/><line x1="150" y1="590" x2="168" y2="618" stroke="#31507d" stroke-width="2"/><text x="150" y="638" font-size="13.5" text-anchor="middle" font-weight="600">Watchdog</text><text x="150" y="655" font-size="13.5" text-anchor="middle" font-weight="600">Monitor</text>
<circle cx="150" cy="780" r="13" fill="#fff" stroke="#31507d" stroke-width="2"/><line x1="150" y1="793" x2="150" y2="830" stroke="#31507d" stroke-width="2"/><line x1="128" y1="806" x2="172" y2="806" stroke="#31507d" stroke-width="2"/><line x1="150" y1="830" x2="132" y2="858" stroke="#31507d" stroke-width="2"/><line x1="150" y1="830" x2="168" y2="858" stroke="#31507d" stroke-width="2"/><text x="150" y="878" font-size="13.5" text-anchor="middle" font-weight="600">Coupled</text><text x="150" y="895" font-size="13.5" text-anchor="middle" font-weight="600">Truck (jt)</text>
<circle cx="1385" cy="520" r="13" fill="#fff" stroke="#31507d" stroke-width="2"/><line x1="1385" y1="533" x2="1385" y2="570" stroke="#31507d" stroke-width="2"/><line x1="1363" y1="546" x2="1407" y2="546" stroke="#31507d" stroke-width="2"/><line x1="1385" y1="570" x2="1367" y2="598" stroke="#31507d" stroke-width="2"/><line x1="1385" y1="570" x2="1403" y2="598" stroke="#31507d" stroke-width="2"/><text x="1385" y="618" font-size="13.5" text-anchor="middle" font-weight="600">ADAS</text><text x="1385" y="635" font-size="13.5" text-anchor="middle" font-weight="600">Subsystem</text>
<path d="M1175,180 L1394,180 L1410,196 L1410,276 L1175,276 Z" fill="#fff6cf" stroke="#b59b25" stroke-width="1.3"/><path d="M1394,180 L1394,196 L1410,196" fill="#ecdd9a" stroke="#b59b25" stroke-width="1.3"/><text x="1183" y="196" font-size="12" font-weight="bold">&lt;&lt;messages&gt;&gt;</text><text x="1183" y="214" font-size="11.5">HEARTBEAT</text><text x="1183" y="230" font-size="11.5">LINK_LOST</text><text x="1183" y="246" font-size="11.5">SAFE_FALLBACK</text><text x="1183" y="262" font-size="11.5">RESUME</text><line x1="1175" y1="200" x2="908" y2="258" stroke="#b59b25" stroke-width="1.1" stroke-dasharray="2,3"/>
<path d="M1180,760 L1389,760 L1405,776 L1405,824 L1180,824 Z" fill="#fff6cf" stroke="#b59b25" stroke-width="1.3"/><path d="M1389,760 L1389,776 L1405,776" fill="#ecdd9a" stroke="#b59b25" stroke-width="1.3"/><text x="1188" y="776" font-size="12" font-weight="bold">&lt;&lt;post-condition&gt;&gt;</text><text x="1188" y="794" font-size="11.5">Brake applied when</text><text x="1188" y="810" font-size="11.5">gap &lt; D_MIN (10 m)</text><line x1="1180" y1="780" x2="1130" y2="720" stroke="#b59b25" stroke-width="1.1" stroke-dasharray="2,3"/>
<path d="M330,790 L564,790 L580,806 L580,870 L330,870 Z" fill="#fff6cf" stroke="#b59b25" stroke-width="1.3"/><path d="M564,790 L564,806 L580,806" fill="#ecdd9a" stroke="#b59b25" stroke-width="1.3"/><text x="338" y="806" font-size="12" font-weight="bold">&lt;&lt;timing constraints&gt;&gt;</text><text x="338" y="824" font-size="11.5">T_LINKLOSS = 300 ms</text><text x="338" y="840" font-size="11.5">T_FALLBACK = 200 ms</text><text x="338" y="856" font-size="11.5">Fallback ≤ 200 ms after loss</text><line x1="330" y1="810" x2="612" y2="650" stroke="#b59b25" stroke-width="1.1" stroke-dasharray="2,3"/>
</svg>